ISO-10303-21;
HEADER;
FILE_DESCRIPTION((''),'2;1');
FILE_NAME('','',(''),(''),'kotoba-lang/brep','','');
FILE_SCHEMA(('CONFIG_CONTROL_DESIGN'));
ENDSEC;
DATA;
#1=CARTESIAN_POINT('',(0.,0.,0.));
#2=VERTEX_POINT('',#1);
#3=CARTESIAN_POINT('',(133.4,0.,0.));
#4=VERTEX_POINT('',#3);
#5=CARTESIAN_POINT('',(133.4,192.4,0.));
#6=VERTEX_POINT('',#5);
#7=CARTESIAN_POINT('',(0.,192.4,0.));
#8=VERTEX_POINT('',#7);
#9=CARTESIAN_POINT('',(0.,0.,320.4));
#10=VERTEX_POINT('',#9);
#11=CARTESIAN_POINT('',(133.4,0.,320.4));
#12=VERTEX_POINT('',#11);
#13=CARTESIAN_POINT('',(133.4,192.4,320.4));
#14=VERTEX_POINT('',#13);
#15=CARTESIAN_POINT('',(0.,192.4,320.4));
#16=VERTEX_POINT('',#15);
#17=CARTESIAN_POINT('',(0.,0.,0.));
#18=DIRECTION('',(1.,0.,0.));
#19=VECTOR('',#18,1.);
#20=LINE('',#17,#19);
#21=EDGE_CURVE('',#2,#4,#20,.T.);
#22=CARTESIAN_POINT('',(133.4,0.,0.));
#23=DIRECTION('',(0.,1.,0.));
#24=VECTOR('',#23,1.);
#25=LINE('',#22,#24);
#26=EDGE_CURVE('',#4,#6,#25,.T.);
#27=CARTESIAN_POINT('',(133.4,192.4,0.));
#28=DIRECTION('',(-1.,0.,0.));
#29=VECTOR('',#28,1.);
#30=LINE('',#27,#29);
#31=EDGE_CURVE('',#6,#8,#30,.T.);
#32=CARTESIAN_POINT('',(0.,192.4,0.));
#33=DIRECTION('',(0.,-1.,0.));
#34=VECTOR('',#33,1.);
#35=LINE('',#32,#34);
#36=EDGE_CURVE('',#8,#2,#35,.T.);
#37=CARTESIAN_POINT('',(0.,0.,320.4));
#38=DIRECTION('',(1.,0.,0.));
#39=VECTOR('',#38,1.);
#40=LINE('',#37,#39);
#41=EDGE_CURVE('',#10,#12,#40,.T.);
#42=CARTESIAN_POINT('',(133.4,0.,320.4));
#43=DIRECTION('',(0.,1.,0.));
#44=VECTOR('',#43,1.);
#45=LINE('',#42,#44);
#46=EDGE_CURVE('',#12,#14,#45,.T.);
#47=CARTESIAN_POINT('',(133.4,192.4,320.4));
#48=DIRECTION('',(-1.,0.,0.));
#49=VECTOR('',#48,1.);
#50=LINE('',#47,#49);
#51=EDGE_CURVE('',#14,#16,#50,.T.);
#52=CARTESIAN_POINT('',(0.,192.4,320.4));
#53=DIRECTION('',(0.,-1.,0.));
#54=VECTOR('',#53,1.);
#55=LINE('',#52,#54);
#56=EDGE_CURVE('',#16,#10,#55,.T.);
#57=CARTESIAN_POINT('',(0.,0.,0.));
#58=DIRECTION('',(0.,0.,1.));
#59=VECTOR('',#58,1.);
#60=LINE('',#57,#59);
#61=EDGE_CURVE('',#2,#10,#60,.T.);
#62=CARTESIAN_POINT('',(133.4,0.,0.));
#63=DIRECTION('',(0.,0.,1.));
#64=VECTOR('',#63,1.);
#65=LINE('',#62,#64);
#66=EDGE_CURVE('',#4,#12,#65,.T.);
#67=CARTESIAN_POINT('',(133.4,192.4,0.));
#68=DIRECTION('',(0.,0.,1.));
#69=VECTOR('',#68,1.);
#70=LINE('',#67,#69);
#71=EDGE_CURVE('',#6,#14,#70,.T.);
#72=CARTESIAN_POINT('',(0.,192.4,0.));
#73=DIRECTION('',(0.,0.,1.));
#74=VECTOR('',#73,1.);
#75=LINE('',#72,#74);
#76=EDGE_CURVE('',#8,#16,#75,.T.);
#77=CARTESIAN_POINT('',(66.7,96.2,160.2));
#78=DIRECTION('',(0.,0.,-1.));
#79=AXIS2_PLACEMENT_3D('',#77,#78,$);
#80=PLANE('',#79);
#81=ORIENTED_EDGE('',*,*,#21,.T.);
#82=ORIENTED_EDGE('',*,*,#26,.T.);
#83=ORIENTED_EDGE('',*,*,#31,.T.);
#84=ORIENTED_EDGE('',*,*,#36,.T.);
#85=EDGE_LOOP('',(#81,#82,#83,#84));
#86=FACE_BOUND('',#85,.T.);
#87=ADVANCED_FACE('',(#86),#80,.T.);
#88=CARTESIAN_POINT('',(66.7,96.2,160.2));
#89=DIRECTION('',(0.,0.,1.));
#90=AXIS2_PLACEMENT_3D('',#88,#89,$);
#91=PLANE('',#90);
#92=ORIENTED_EDGE('',*,*,#41,.T.);
#93=ORIENTED_EDGE('',*,*,#46,.T.);
#94=ORIENTED_EDGE('',*,*,#51,.T.);
#95=ORIENTED_EDGE('',*,*,#56,.T.);
#96=EDGE_LOOP('',(#92,#93,#94,#95));
#97=FACE_BOUND('',#96,.T.);
#98=ADVANCED_FACE('',(#97),#91,.T.);
#99=CARTESIAN_POINT('',(66.7,96.2,160.2));
#100=DIRECTION('',(0.,-1.,0.));
#101=AXIS2_PLACEMENT_3D('',#99,#100,$);
#102=PLANE('',#101);
#103=ORIENTED_EDGE('',*,*,#21,.T.);
#104=ORIENTED_EDGE('',*,*,#66,.T.);
#105=ORIENTED_EDGE('',*,*,#41,.F.);
#106=ORIENTED_EDGE('',*,*,#61,.F.);
#107=EDGE_LOOP('',(#103,#104,#105,#106));
#108=FACE_BOUND('',#107,.T.);
#109=ADVANCED_FACE('',(#108),#102,.T.);
#110=CARTESIAN_POINT('',(66.7,96.2,160.2));
#111=DIRECTION('',(0.,1.,0.));
#112=AXIS2_PLACEMENT_3D('',#110,#111,$);
#113=PLANE('',#112);
#114=ORIENTED_EDGE('',*,*,#31,.T.);
#115=ORIENTED_EDGE('',*,*,#76,.T.);
#116=ORIENTED_EDGE('',*,*,#51,.F.);
#117=ORIENTED_EDGE('',*,*,#71,.F.);
#118=EDGE_LOOP('',(#114,#115,#116,#117));
#119=FACE_BOUND('',#118,.T.);
#120=ADVANCED_FACE('',(#119),#113,.T.);
#121=CARTESIAN_POINT('',(66.7,96.2,160.2));
#122=DIRECTION('',(-1.,0.,0.));
#123=AXIS2_PLACEMENT_3D('',#121,#122,$);
#124=PLANE('',#123);
#125=ORIENTED_EDGE('',*,*,#36,.T.);
#126=ORIENTED_EDGE('',*,*,#61,.T.);
#127=ORIENTED_EDGE('',*,*,#56,.F.);
#128=ORIENTED_EDGE('',*,*,#76,.F.);
#129=EDGE_LOOP('',(#125,#126,#127,#128));
#130=FACE_BOUND('',#129,.T.);
#131=ADVANCED_FACE('',(#130),#124,.T.);
#132=CARTESIAN_POINT('',(66.7,96.2,160.2));
#133=DIRECTION('',(1.,0.,0.));
#134=AXIS2_PLACEMENT_3D('',#132,#133,$);
#135=PLANE('',#134);
#136=ORIENTED_EDGE('',*,*,#26,.T.);
#137=ORIENTED_EDGE('',*,*,#71,.T.);
#138=ORIENTED_EDGE('',*,*,#46,.F.);
#139=ORIENTED_EDGE('',*,*,#66,.F.);
#140=EDGE_LOOP('',(#136,#137,#138,#139));
#141=FACE_BOUND('',#140,.T.);
#142=ADVANCED_FACE('',(#141),#135,.T.);
#143=CLOSED_SHELL('',(#87,#98,#109,#120,#131,#142));
#144=MANIFOLD_SOLID_BREP('',#143);
ENDSEC;
END-ISO-10303-21;
